<svg xmlns="http://www.w3.org/2000/svg" width="1200" height="1500" viewBox="0 0 1200 1500" role="img" aria-label="Billboard Walkout">
  <defs>
    <radialGradient id="bg" cx="50%" cy="34%" r="80%">
      <stop offset="0%" stop-color="#FF2EA6" stop-opacity="0.22"/>
      <stop offset="40%" stop-color="#0B0B14"/>
      <stop offset="100%" stop-color="#000000"/>
    </radialGradient>
    <linearGradient id="vig" x1="0" y1="0" x2="0" y2="1">
      <stop offset="0%" stop-color="#000" stop-opacity="0"/>
      <stop offset="72%" stop-color="#000" stop-opacity="0"/>
      <stop offset="100%" stop-color="#000" stop-opacity="0.78"/>
    </linearGradient>
  </defs>
  <rect width="1200" height="1500" fill="url(#bg)"/>
  <rect x="20" y="20" width="1160" height="1460" rx="28" fill="none" stroke="#22D3EE" stroke-opacity="0.35" stroke-width="3"/>
  
        <rect x="250" y="300" width="700" height="430" rx="18" fill="#ffffff" opacity="0.08"/>
        <rect x="280" y="330" width="640" height="370" rx="10" fill="#0B0B14" opacity="0.7" stroke="#22D3EE" stroke-width="4"/>
        <rect x="280" y="338" width="640" height="2" fill="#22D3EE" opacity="0.12"/><rect x="280" y="352" width="640" height="2" fill="#22D3EE" opacity="0.12"/><rect x="280" y="366" width="640" height="2" fill="#22D3EE" opacity="0.12"/><rect x="280" y="380" width="640" height="2" fill="#22D3EE" opacity="0.12"/><rect x="280" y="394" width="640" height="2" fill="#22D3EE" opacity="0.12"/><rect x="280" y="408" width="640" height="2" fill="#22D3EE" opacity="0.12"/><rect x="280" y="422" width="640" height="2" fill="#22D3EE" opacity="0.12"/><rect x="280" y="436" width="640" height="2" fill="#22D3EE" opacity="0.12"/><rect x="280" y="450" width="640" height="2" fill="#22D3EE" opacity="0.12"/><rect x="280" y="464" width="640" height="2" fill="#22D3EE" opacity="0.12"/><rect x="280" y="478" width="640" height="2" fill="#22D3EE" opacity="0.12"/><rect x="280" y="492" width="640" height="2" fill="#22D3EE" opacity="0.12"/><rect x="280" y="506" width="640" height="2" fill="#22D3EE" opacity="0.12"/><rect x="280" y="520" width="640" height="2" fill="#22D3EE" opacity="0.12"/><rect x="280" y="534" width="640" height="2" fill="#22D3EE" opacity="0.12"/><rect x="280" y="548" width="640" height="2" fill="#22D3EE" opacity="0.12"/><rect x="280" y="562" width="640" height="2" fill="#22D3EE" opacity="0.12"/><rect x="280" y="576" width="640" height="2" fill="#22D3EE" opacity="0.12"/><rect x="280" y="590" width="640" height="2" fill="#22D3EE" opacity="0.12"/><rect x="280" y="604" width="640" height="2" fill="#22D3EE" opacity="0.12"/><rect x="280" y="618" width="640" height="2" fill="#22D3EE" opacity="0.12"/><rect x="280" y="632" width="640" height="2" fill="#22D3EE" opacity="0.12"/><rect x="280" y="646" width="640" height="2" fill="#22D3EE" opacity="0.12"/><rect x="280" y="660" width="640" height="2" fill="#22D3EE" opacity="0.12"/><rect x="280" y="674" width="640" height="2" fill="#22D3EE" opacity="0.12"/><rect x="280" y="688" width="640" height="2" fill="#22D3EE" opacity="0.12"/>
        <!-- leaping figure dropping off the bottom -->
        <path d="M640 600 q30 90 -20 170 q90 60 30 200 l-120 110 q-70 -60 -10 -180 q40 -150 40 -300 z" fill="#FF2EA6"/>
        <circle cx="650" cy="585" r="46" fill="#FF2EA6"/>
        <path d="M680 700 l18 6 l-8 18 z" fill="#22D3EE" opacity="0.7"/><path d="M690 809 l18 6 l-8 18 z" fill="#22D3EE" opacity="0.7"/><path d="M598 917 l18 6 l-8 18 z" fill="#22D3EE" opacity="0.7"/><path d="M500 804 l18 6 l-8 18 z" fill="#22D3EE" opacity="0.7"/><path d="M400 758 l18 6 l-8 18 z" fill="#22D3EE" opacity="0.7"/><path d="M353 625 l18 6 l-8 18 z" fill="#22D3EE" opacity="0.7"/><path d="M500 596 l18 6 l-8 18 z" fill="#22D3EE" opacity="0.7"/><path d="M590 533 l18 6 l-8 18 z" fill="#22D3EE" opacity="0.7"/><path d="M729 559 l18 6 l-8 18 z" fill="#22D3EE" opacity="0.7"/>
  <rect width="1200" height="1500" fill="url(#vig)"/>
  <text x="60" y="1350" font-family="Georgia, 'Times New Roman', serif" font-size="74" font-weight="700" fill="#ffffff">Billboard Walkout</text>
  <text x="62" y="1408" font-family="ui-monospace, Menlo, monospace" font-size="30" letter-spacing="3" fill="#22D3EE" opacity="0.95">billboard · shatter-step · off-screen</text>
</svg>
