<svg xmlns="http://www.w3.org/2000/svg" width="1200" height="1500" viewBox="0 0 1200 1500" role="img" aria-label="CCTV Grid Walk-Across">
  <defs>
    <radialGradient id="bg" cx="50%" cy="34%" r="80%">
      <stop offset="0%" stop-color="#19E0C0" stop-opacity="0.22"/>
      <stop offset="40%" stop-color="#05080A"/>
      <stop offset="100%" stop-color="#000000"/>
    </radialGradient>
    <linearGradient id="vig" x1="0" y1="0" x2="0" y2="1">
      <stop offset="0%" stop-color="#000" stop-opacity="0"/>
      <stop offset="72%" stop-color="#000" stop-opacity="0"/>
      <stop offset="100%" stop-color="#000" stop-opacity="0.78"/>
    </linearGradient>
  </defs>
  <rect width="1200" height="1500" fill="url(#bg)"/>
  <rect x="20" y="20" width="1160" height="1460" rx="28" fill="none" stroke="#9AF7E6" stroke-opacity="0.35" stroke-width="3"/>
  <rect x="250" y="420" width="220" height="300" rx="8" fill="#05080A" opacity="0.8" stroke="#19E0C0" stroke-width="3"/><rect x="250" y="428" width="220" height="2" fill="#9AF7E6" opacity="0.12"/><rect x="250" y="442" width="220" height="2" fill="#9AF7E6" opacity="0.12"/><rect x="250" y="456" width="220" height="2" fill="#9AF7E6" opacity="0.12"/><rect x="250" y="470" width="220" height="2" fill="#9AF7E6" opacity="0.12"/><rect x="250" y="484" width="220" height="2" fill="#9AF7E6" opacity="0.12"/><rect x="250" y="498" width="220" height="2" fill="#9AF7E6" opacity="0.12"/><rect x="250" y="512" width="220" height="2" fill="#9AF7E6" opacity="0.12"/><rect x="250" y="526" width="220" height="2" fill="#9AF7E6" opacity="0.12"/><rect x="250" y="540" width="220" height="2" fill="#9AF7E6" opacity="0.12"/><rect x="250" y="554" width="220" height="2" fill="#9AF7E6" opacity="0.12"/><rect x="250" y="568" width="220" height="2" fill="#9AF7E6" opacity="0.12"/><rect x="250" y="582" width="220" height="2" fill="#9AF7E6" opacity="0.12"/><rect x="250" y="596" width="220" height="2" fill="#9AF7E6" opacity="0.12"/><rect x="250" y="610" width="220" height="2" fill="#9AF7E6" opacity="0.12"/><rect x="250" y="624" width="220" height="2" fill="#9AF7E6" opacity="0.12"/><rect x="250" y="638" width="220" height="2" fill="#9AF7E6" opacity="0.12"/><rect x="250" y="652" width="220" height="2" fill="#9AF7E6" opacity="0.12"/><rect x="250" y="666" width="220" height="2" fill="#9AF7E6" opacity="0.12"/><rect x="250" y="680" width="220" height="2" fill="#9AF7E6" opacity="0.12"/><rect x="250" y="694" width="220" height="2" fill="#9AF7E6" opacity="0.12"/><rect x="250" y="708" width="220" height="2" fill="#9AF7E6" opacity="0.12"/><circle cx="274" cy="444" r="7" fill="#ff4d4d"/><rect x="490" y="420" width="220" height="300" rx="8" fill="#05080A" opacity="0.8" stroke="#19E0C0" stroke-width="3"/><rect x="490" y="428" width="220" height="2" fill="#9AF7E6" opacity="0.12"/><rect x="490" y="442" width="220" height="2" fill="#9AF7E6" opacity="0.12"/><rect x="490" y="456" width="220" height="2" fill="#9AF7E6" opacity="0.12"/><rect x="490" y="470" width="220" height="2" fill="#9AF7E6" opacity="0.12"/><rect x="490" y="484" width="220" height="2" fill="#9AF7E6" opacity="0.12"/><rect x="490" y="498" width="220" height="2" fill="#9AF7E6" opacity="0.12"/><rect x="490" y="512" width="220" height="2" fill="#9AF7E6" opacity="0.12"/><rect x="490" y="526" width="220" height="2" fill="#9AF7E6" opacity="0.12"/><rect x="490" y="540" width="220" height="2" fill="#9AF7E6" opacity="0.12"/><rect x="490" y="554" width="220" height="2" fill="#9AF7E6" opacity="0.12"/><rect x="490" y="568" width="220" height="2" fill="#9AF7E6" opacity="0.12"/><rect x="490" y="582" width="220" height="2" fill="#9AF7E6" opacity="0.12"/><rect x="490" y="596" width="220" height="2" fill="#9AF7E6" opacity="0.12"/><rect x="490" y="610" width="220" height="2" fill="#9AF7E6" opacity="0.12"/><rect x="490" y="624" width="220" height="2" fill="#9AF7E6" opacity="0.12"/><rect x="490" y="638" width="220" height="2" fill="#9AF7E6" opacity="0.12"/><rect x="490" y="652" width="220" height="2" fill="#9AF7E6" opacity="0.12"/><rect x="490" y="666" width="220" height="2" fill="#9AF7E6" opacity="0.12"/><rect x="490" y="680" width="220" height="2" fill="#9AF7E6" opacity="0.12"/><rect x="490" y="694" width="220" height="2" fill="#9AF7E6" opacity="0.12"/><rect x="490" y="708" width="220" height="2" fill="#9AF7E6" opacity="0.12"/><circle cx="514" cy="444" r="7" fill="#ff4d4d"/><rect x="730" y="420" width="220" height="300" rx="8" fill="#05080A" opacity="0.8" stroke="#19E0C0" stroke-width="3"/><rect x="730" y="428" width="220" height="2" fill="#9AF7E6" opacity="0.12"/><rect x="730" y="442" width="220" height="2" fill="#9AF7E6" opacity="0.12"/><rect x="730" y="456" width="220" height="2" fill="#9AF7E6" opacity="0.12"/><rect x="730" y="470" width="220" height="2" fill="#9AF7E6" opacity="0.12"/><rect x="730" y="484" width="220" height="2" fill="#9AF7E6" opacity="0.12"/><rect x="730" y="498" width="220" height="2" fill="#9AF7E6" opacity="0.12"/><rect x="730" y="512" width="220" height="2" fill="#9AF7E6" opacity="0.12"/><rect x="730" y="526" width="220" height="2" fill="#9AF7E6" opacity="0.12"/><rect x="730" y="540" width="220" height="2" fill="#9AF7E6" opacity="0.12"/><rect x="730" y="554" width="220" height="2" fill="#9AF7E6" opacity="0.12"/><rect x="730" y="568" width="220" height="2" fill="#9AF7E6" opacity="0.12"/><rect x="730" y="582" width="220" height="2" fill="#9AF7E6" opacity="0.12"/><rect x="730" y="596" width="220" height="2" fill="#9AF7E6" opacity="0.12"/><rect x="730" y="610" width="220" height="2" fill="#9AF7E6" opacity="0.12"/><rect x="730" y="624" width="220" height="2" fill="#9AF7E6" opacity="0.12"/><rect x="730" y="638" width="220" height="2" fill="#9AF7E6" opacity="0.12"/><rect x="730" y="652" width="220" height="2" fill="#9AF7E6" opacity="0.12"/><rect x="730" y="666" width="220" height="2" fill="#9AF7E6" opacity="0.12"/><rect x="730" y="680" width="220" height="2" fill="#9AF7E6" opacity="0.12"/><rect x="730" y="694" width="220" height="2" fill="#9AF7E6" opacity="0.12"/><rect x="730" y="708" width="220" height="2" fill="#9AF7E6" opacity="0.12"/><circle cx="754" cy="444" r="7" fill="#ff4d4d"/><rect x="250" y="740" width="220" height="300" rx="8" fill="#05080A" opacity="0.8" stroke="#19E0C0" stroke-width="3"/><rect x="250" y="748" width="220" height="2" fill="#9AF7E6" opacity="0.12"/><rect x="250" y="762" width="220" height="2" fill="#9AF7E6" opacity="0.12"/><rect x="250" y="776" width="220" height="2" fill="#9AF7E6" opacity="0.12"/><rect x="250" y="790" width="220" height="2" fill="#9AF7E6" opacity="0.12"/><rect x="250" y="804" width="220" height="2" fill="#9AF7E6" opacity="0.12"/><rect x="250" y="818" width="220" height="2" fill="#9AF7E6" opacity="0.12"/><rect x="250" y="832" width="220" height="2" fill="#9AF7E6" opacity="0.12"/><rect x="250" y="846" width="220" height="2" fill="#9AF7E6" opacity="0.12"/><rect x="250" y="860" width="220" height="2" fill="#9AF7E6" opacity="0.12"/><rect x="250" y="874" width="220" height="2" fill="#9AF7E6" opacity="0.12"/><rect x="250" y="888" width="220" height="2" fill="#9AF7E6" opacity="0.12"/><rect x="250" y="902" width="220" height="2" fill="#9AF7E6" opacity="0.12"/><rect x="250" y="916" width="220" height="2" fill="#9AF7E6" opacity="0.12"/><rect x="250" y="930" width="220" height="2" fill="#9AF7E6" opacity="0.12"/><rect x="250" y="944" width="220" height="2" fill="#9AF7E6" opacity="0.12"/><rect x="250" y="958" width="220" height="2" fill="#9AF7E6" opacity="0.12"/><rect x="250" y="972" width="220" height="2" fill="#9AF7E6" opacity="0.12"/><rect x="250" y="986" width="220" height="2" fill="#9AF7E6" opacity="0.12"/><rect x="250" y="1000" width="220" height="2" fill="#9AF7E6" opacity="0.12"/><rect x="250" y="1014" width="220" height="2" fill="#9AF7E6" opacity="0.12"/><rect x="250" y="1028" width="220" height="2" fill="#9AF7E6" opacity="0.12"/><circle cx="274" cy="764" r="7" fill="#ff4d4d"/><rect x="490" y="740" width="220" height="300" rx="8" fill="#05080A" opacity="0.8" stroke="#19E0C0" stroke-width="3"/><rect x="490" y="748" width="220" height="2" fill="#9AF7E6" opacity="0.12"/><rect x="490" y="762" width="220" height="2" fill="#9AF7E6" opacity="0.12"/><rect x="490" y="776" width="220" height="2" fill="#9AF7E6" opacity="0.12"/><rect x="490" y="790" width="220" height="2" fill="#9AF7E6" opacity="0.12"/><rect x="490" y="804" width="220" height="2" fill="#9AF7E6" opacity="0.12"/><rect x="490" y="818" width="220" height="2" fill="#9AF7E6" opacity="0.12"/><rect x="490" y="832" width="220" height="2" fill="#9AF7E6" opacity="0.12"/><rect x="490" y="846" width="220" height="2" fill="#9AF7E6" opacity="0.12"/><rect x="490" y="860" width="220" height="2" fill="#9AF7E6" opacity="0.12"/><rect x="490" y="874" width="220" height="2" fill="#9AF7E6" opacity="0.12"/><rect x="490" y="888" width="220" height="2" fill="#9AF7E6" opacity="0.12"/><rect x="490" y="902" width="220" height="2" fill="#9AF7E6" opacity="0.12"/><rect x="490" y="916" width="220" height="2" fill="#9AF7E6" opacity="0.12"/><rect x="490" y="930" width="220" height="2" fill="#9AF7E6" opacity="0.12"/><rect x="490" y="944" width="220" height="2" fill="#9AF7E6" opacity="0.12"/><rect x="490" y="958" width="220" height="2" fill="#9AF7E6" opacity="0.12"/><rect x="490" y="972" width="220" height="2" fill="#9AF7E6" opacity="0.12"/><rect x="490" y="986" width="220" height="2" fill="#9AF7E6" opacity="0.12"/><rect x="490" y="1000" width="220" height="2" fill="#9AF7E6" opacity="0.12"/><rect x="490" y="1014" width="220" height="2" fill="#9AF7E6" opacity="0.12"/><rect x="490" y="1028" width="220" height="2" fill="#9AF7E6" opacity="0.12"/><circle cx="514" cy="764" r="7" fill="#ff4d4d"/><rect x="730" y="740" width="220" height="300" rx="8" fill="#05080A" opacity="0.8" stroke="#19E0C0" stroke-width="3"/><rect x="730" y="748" width="220" height="2" fill="#9AF7E6" opacity="0.12"/><rect x="730" y="762" width="220" height="2" fill="#9AF7E6" opacity="0.12"/><rect x="730" y="776" width="220" height="2" fill="#9AF7E6" opacity="0.12"/><rect x="730" y="790" width="220" height="2" fill="#9AF7E6" opacity="0.12"/><rect x="730" y="804" width="220" height="2" fill="#9AF7E6" opacity="0.12"/><rect x="730" y="818" width="220" height="2" fill="#9AF7E6" opacity="0.12"/><rect x="730" y="832" width="220" height="2" fill="#9AF7E6" opacity="0.12"/><rect x="730" y="846" width="220" height="2" fill="#9AF7E6" opacity="0.12"/><rect x="730" y="860" width="220" height="2" fill="#9AF7E6" opacity="0.12"/><rect x="730" y="874" width="220" height="2" fill="#9AF7E6" opacity="0.12"/><rect x="730" y="888" width="220" height="2" fill="#9AF7E6" opacity="0.12"/><rect x="730" y="902" width="220" height="2" fill="#9AF7E6" opacity="0.12"/><rect x="730" y="916" width="220" height="2" fill="#9AF7E6" opacity="0.12"/><rect x="730" y="930" width="220" height="2" fill="#9AF7E6" opacity="0.12"/><rect x="730" y="944" width="220" height="2" fill="#9AF7E6" opacity="0.12"/><rect x="730" y="958" width="220" height="2" fill="#9AF7E6" opacity="0.12"/><rect x="730" y="972" width="220" height="2" fill="#9AF7E6" opacity="0.12"/><rect x="730" y="986" width="220" height="2" fill="#9AF7E6" opacity="0.12"/><rect x="730" y="1000" width="220" height="2" fill="#9AF7E6" opacity="0.12"/><rect x="730" y="1014" width="220" height="2" fill="#9AF7E6" opacity="0.12"/><rect x="730" y="1028" width="220" height="2" fill="#9AF7E6" opacity="0.12"/><circle cx="754" cy="764" r="7" fill="#ff4d4d"/>
        <!-- figure crossing a torn seam between cell 1 and 2 -->
        <path d="M470 540 l60 -20 l-10 360 l-60 10 z" fill="#9AF7E6" opacity="0.6"/>
        <path d="M500 560 q26 70 -10 150 q70 40 20 150 q-110 20 -150 -50 q30 -130 60 -200 q-20 -70 80 -70 z" fill="#9AF7E6"/>
        <circle cx="510" cy="540" r="38" fill="#9AF7E6"/>
  <rect width="1200" height="1500" fill="url(#vig)"/>
  <text x="60" y="1350" font-family="Georgia, 'Times New Roman', serif" font-size="74" font-weight="700" fill="#ffffff">CCTV Grid Walk-Across</text>
  <text x="62" y="1408" font-family="ui-monospace, Menlo, monospace" font-size="30" letter-spacing="3" fill="#9AF7E6" opacity="0.95">cctv-grid · reach-through · adjacent UI</text>
</svg>
