<svg xmlns="http://www.w3.org/2000/svg" width="1200" height="1500" viewBox="0 0 1200 1500" role="img" aria-label="Group Chat Swarm">
  <defs>
    <radialGradient id="bg" cx="50%" cy="34%" r="80%">
      <stop offset="0%" stop-color="#3B82F6" stop-opacity="0.22"/>
      <stop offset="40%" stop-color="#0A1830"/>
      <stop offset="100%" stop-color="#000000"/>
    </radialGradient>
    <linearGradient id="vig" x1="0" y1="0" x2="0" y2="1">
      <stop offset="0%" stop-color="#000" stop-opacity="0"/>
      <stop offset="72%" stop-color="#000" stop-opacity="0"/>
      <stop offset="100%" stop-color="#000" stop-opacity="0.78"/>
    </linearGradient>
  </defs>
  <rect width="1200" height="1500" fill="url(#bg)"/>
  <rect x="20" y="20" width="1160" height="1460" rx="28" fill="none" stroke="#E5EEFF" stroke-opacity="0.35" stroke-width="3"/>
  <rect x="300" y="380" width="300" height="64" rx="32" fill="#ffffff" opacity="0.18"/><rect x="560" y="470" width="340" height="64" rx="32" fill="#3B82F6" opacity="0.5"/><rect x="300" y="560" width="300" height="64" rx="32" fill="#ffffff" opacity="0.18"/><rect x="560" y="650" width="340" height="64" rx="32" fill="#3B82F6" opacity="0.5"/><rect x="300" y="740" width="300" height="64" rx="32" fill="#ffffff" opacity="0.18"/><rect x="300" y="1080" width="600" height="80" rx="22" fill="#3B82F6" opacity="0.4"/><circle cx="600" cy="760" r="18.0" fill="#E5EEFF" opacity="0.90"/><circle cx="616" cy="731" r="17.5" fill="#E5EEFF" opacity="0.88"/><circle cx="629" cy="708" r="17.0" fill="#E5EEFF" opacity="0.87"/><circle cx="639" cy="692" r="16.6" fill="#E5EEFF" opacity="0.85"/><circle cx="644" cy="684" r="16.1" fill="#E5EEFF" opacity="0.84"/><circle cx="643" cy="686" r="15.6" fill="#E5EEFF" opacity="0.82"/><circle cx="637" cy="696" r="15.1" fill="#E5EEFF" opacity="0.80"/><circle cx="627" cy="715" r="14.6" fill="#E5EEFF" opacity="0.79"/><circle cx="614" cy="741" r="14.2" fill="#E5EEFF" opacity="0.77"/><circle cx="600" cy="772" r="13.7" fill="#E5EEFF" opacity="0.76"/><circle cx="589" cy="807" r="13.2" fill="#E5EEFF" opacity="0.74"/><circle cx="583" cy="844" r="12.7" fill="#E5EEFF" opacity="0.72"/><circle cx="583" cy="880" r="12.2" fill="#E5EEFF" opacity="0.71"/><circle cx="593" cy="914" r="11.8" fill="#E5EEFF" opacity="0.69"/><circle cx="613" cy="945" r="11.3" fill="#E5EEFF" opacity="0.68"/><circle cx="643" cy="972" r="10.8" fill="#E5EEFF" opacity="0.66"/><circle cx="683" cy="994" r="10.3" fill="#E5EEFF" opacity="0.64"/><circle cx="730" cy="1010" r="9.8" fill="#E5EEFF" opacity="0.63"/><circle cx="781" cy="1023" r="9.4" fill="#E5EEFF" opacity="0.61"/><circle cx="832" cy="1031" r="8.9" fill="#E5EEFF" opacity="0.60"/><circle cx="880" cy="1036" r="8.4" fill="#E5EEFF" opacity="0.58"/><circle cx="921" cy="1039" r="7.9" fill="#E5EEFF" opacity="0.56"/><circle cx="951" cy="1042" r="7.4" fill="#E5EEFF" opacity="0.55"/><circle cx="966" cy="1046" r="7.0" fill="#E5EEFF" opacity="0.53"/><circle cx="964" cy="1052" r="6.5" fill="#E5EEFF" opacity="0.52"/><circle cx="946" cy="1060" r="6.0" fill="#E5EEFF" opacity="0.50"/>
  <rect width="1200" height="1500" fill="url(#vig)"/>
  <text x="60" y="1350" font-family="Georgia, 'Times New Roman', serif" font-size="74" font-weight="700" fill="#ffffff">Group Chat Swarm</text>
  <text x="62" y="1408" font-family="ui-monospace, Menlo, monospace" font-size="30" letter-spacing="3" fill="#E5EEFF" opacity="0.95">group-chat · swarm · adjacent UI</text>
</svg>
