<svg xmlns="http://www.w3.org/2000/svg" width="1200" height="1500" viewBox="0 0 1200 1500" role="img" aria-label="Home Screen Fold-Out">
  <defs>
    <radialGradient id="bg" cx="50%" cy="34%" r="80%">
      <stop offset="0%" stop-color="#7C3AED" stop-opacity="0.22"/>
      <stop offset="40%" stop-color="#05010F"/>
      <stop offset="100%" stop-color="#000000"/>
    </radialGradient>
    <linearGradient id="vig" x1="0" y1="0" x2="0" y2="1">
      <stop offset="0%" stop-color="#000" stop-opacity="0"/>
      <stop offset="72%" stop-color="#000" stop-opacity="0"/>
      <stop offset="100%" stop-color="#000" stop-opacity="0.78"/>
    </linearGradient>
  </defs>
  <rect width="1200" height="1500" fill="url(#bg)"/>
  <rect x="20" y="20" width="1160" height="1460" rx="28" fill="none" stroke="#E9D5FF" stroke-opacity="0.35" stroke-width="3"/>
  <circle cx="60" cy="40" r="1" fill="#E9D5FF" opacity="0.7"/><circle cx="157" cy="93" r="2" fill="#E9D5FF" opacity="0.7"/><circle cx="254" cy="146" r="3" fill="#E9D5FF" opacity="0.7"/><circle cx="351" cy="199" r="1" fill="#E9D5FF" opacity="0.7"/><circle cx="448" cy="252" r="2" fill="#E9D5FF" opacity="0.7"/><circle cx="545" cy="305" r="3" fill="#E9D5FF" opacity="0.7"/><circle cx="642" cy="358" r="1" fill="#E9D5FF" opacity="0.7"/><circle cx="739" cy="411" r="2" fill="#E9D5FF" opacity="0.7"/><circle cx="836" cy="44" r="3" fill="#E9D5FF" opacity="0.7"/><circle cx="933" cy="97" r="1" fill="#E9D5FF" opacity="0.7"/><circle cx="1030" cy="150" r="2" fill="#E9D5FF" opacity="0.7"/><circle cx="1127" cy="203" r="3" fill="#E9D5FF" opacity="0.7"/><circle cx="144" cy="256" r="1" fill="#E9D5FF" opacity="0.7"/><circle cx="241" cy="309" r="2" fill="#E9D5FF" opacity="0.7"/><circle cx="338" cy="362" r="3" fill="#E9D5FF" opacity="0.7"/><circle cx="435" cy="415" r="1" fill="#E9D5FF" opacity="0.7"/><circle cx="532" cy="48" r="2" fill="#E9D5FF" opacity="0.7"/><circle cx="629" cy="101" r="3" fill="#E9D5FF" opacity="0.7"/><circle cx="726" cy="154" r="1" fill="#E9D5FF" opacity="0.7"/><circle cx="823" cy="207" r="2" fill="#E9D5FF" opacity="0.7"/><circle cx="920" cy="260" r="3" fill="#E9D5FF" opacity="0.7"/><circle cx="1017" cy="313" r="1" fill="#E9D5FF" opacity="0.7"/><circle cx="1114" cy="366" r="2" fill="#E9D5FF" opacity="0.7"/><circle cx="131" cy="419" r="3" fill="#E9D5FF" opacity="0.7"/><circle cx="228" cy="52" r="1" fill="#E9D5FF" opacity="0.7"/><circle cx="325" cy="105" r="2" fill="#E9D5FF" opacity="0.7"/><circle cx="422" cy="158" r="3" fill="#E9D5FF" opacity="0.7"/><circle cx="519" cy="211" r="1" fill="#E9D5FF" opacity="0.7"/><circle cx="616" cy="264" r="2" fill="#E9D5FF" opacity="0.7"/><circle cx="713" cy="317" r="3" fill="#E9D5FF" opacity="0.7"/><circle cx="810" cy="370" r="1" fill="#E9D5FF" opacity="0.7"/><circle cx="907" cy="423" r="2" fill="#E9D5FF" opacity="0.7"/><circle cx="1004" cy="56" r="3" fill="#E9D5FF" opacity="0.7"/><circle cx="1101" cy="109" r="1" fill="#E9D5FF" opacity="0.7"/><circle cx="118" cy="162" r="2" fill="#E9D5FF" opacity="0.7"/><circle cx="215" cy="215" r="3" fill="#E9D5FF" opacity="0.7"/><circle cx="312" cy="268" r="1" fill="#E9D5FF" opacity="0.7"/><circle cx="409" cy="321" r="2" fill="#E9D5FF" opacity="0.7"/><circle cx="506" cy="374" r="3" fill="#E9D5FF" opacity="0.7"/><circle cx="603" cy="427" r="1" fill="#E9D5FF" opacity="0.7"/><rect x="320" y="420" width="110" height="110" rx="26" fill="#7C3AED" opacity="0.3"/><rect x="470" y="420" width="110" height="110" rx="26" fill="#7C3AED" opacity="0.3"/><rect x="620" y="420" width="110" height="110" rx="26" fill="#7C3AED" opacity="0.3"/><rect x="770" y="420" width="110" height="110" rx="26" fill="#7C3AED" opacity="0.3"/><rect x="320" y="570" width="110" height="110" rx="26" fill="#7C3AED" opacity="0.3"/><rect x="470" y="570" width="110" height="110" rx="26" fill="#E9D5FF" opacity="0.95"/><rect x="620" y="570" width="110" height="110" rx="26" fill="#7C3AED" opacity="0.3"/><rect x="770" y="570" width="110" height="110" rx="26" fill="#7C3AED" opacity="0.3"/><rect x="320" y="720" width="110" height="110" rx="26" fill="#7C3AED" opacity="0.3"/><rect x="470" y="720" width="110" height="110" rx="26" fill="#7C3AED" opacity="0.3"/><rect x="620" y="720" width="110" height="110" rx="26" fill="#7C3AED" opacity="0.3"/><rect x="770" y="720" width="110" height="110" rx="26" fill="#7C3AED" opacity="0.3"/><rect x="320" y="870" width="110" height="110" rx="26" fill="#7C3AED" opacity="0.3"/><rect x="470" y="870" width="110" height="110" rx="26" fill="#7C3AED" opacity="0.3"/><rect x="620" y="870" width="110" height="110" rx="26" fill="#7C3AED" opacity="0.3"/><rect x="770" y="870" width="110" height="110" rx="26" fill="#7C3AED" opacity="0.3"/>
        <!-- icon folding into a craft flying up -->
        <path d="M560 430 l80 0 l40 -70 l-160 0 z" fill="#E9D5FF"/>
        <path d="M600 360 l60 -120 l-120 0 z" fill="#E9D5FF"/>
        <path d="M600 240 l8 -120 l-16 0 z" fill="#E9D5FF" opacity="0.6"/>
  <rect width="1200" height="1500" fill="url(#vig)"/>
  <text x="60" y="1350" font-family="Georgia, 'Times New Roman', serif" font-size="74" font-weight="700" fill="#ffffff">Home Screen Fold-Out</text>
  <text x="62" y="1408" font-family="ui-monospace, Menlo, monospace" font-size="30" letter-spacing="3" fill="#E9D5FF" opacity="0.95">app-icon-home · fold to 3D · outer space</text>
</svg>
