<svg xmlns="http://www.w3.org/2000/svg" width="1200" height="1500" viewBox="0 0 1200 1500" role="img" aria-label="Social Feed Breakout">
  <defs>
    <radialGradient id="bg" cx="50%" cy="34%" r="80%">
      <stop offset="0%" stop-color="#FFFFFF" stop-opacity="0.22"/>
      <stop offset="40%" stop-color="#0066FF"/>
      <stop offset="100%" stop-color="#000000"/>
    </radialGradient>
    <linearGradient id="vig" x1="0" y1="0" x2="0" y2="1">
      <stop offset="0%" stop-color="#000" stop-opacity="0"/>
      <stop offset="72%" stop-color="#000" stop-opacity="0"/>
      <stop offset="100%" stop-color="#000" stop-opacity="0.78"/>
    </linearGradient>
  </defs>
  <rect width="1200" height="1500" fill="url(#bg)"/>
  <rect x="20" y="20" width="1160" height="1460" rx="28" fill="none" stroke="#00D4FF" stroke-opacity="0.35" stroke-width="3"/>
  
        <rect x="300" y="360" width="600" height="700" rx="36" fill="#ffffff" opacity="0.10"/>
        <circle cx="360" cy="430" r="34" fill="#FFFFFF" opacity="0.5"/>
        <rect x="410" y="412" width="240" height="18" rx="9" fill="#FFFFFF" opacity="0.4"/>
        <rect x="340" y="500" width="520" height="320" rx="20" fill="#0066FF" opacity="0.55"/>
        <!-- figure climbing out toward viewer -->
        <path d="M600 520 q40 120 -10 240 q120 60 70 220 q-160 40 -260 -60 q40 -200 120 -300 q-30 -90 80 -100 z" fill="#00D4FF" opacity="0.95"/>
        <circle cx="600" cy="500" r="58" fill="#00D4FF"/>
        <path d="M680 760 l18 6 l-8 18 z" fill="#00D4FF" opacity="0.7"/><path d="M690 869 l18 6 l-8 18 z" fill="#00D4FF" opacity="0.7"/><path d="M598 977 l18 6 l-8 18 z" fill="#00D4FF" opacity="0.7"/><path d="M500 864 l18 6 l-8 18 z" fill="#00D4FF" opacity="0.7"/><path d="M400 818 l18 6 l-8 18 z" fill="#00D4FF" opacity="0.7"/><path d="M353 685 l18 6 l-8 18 z" fill="#00D4FF" opacity="0.7"/><path d="M500 656 l18 6 l-8 18 z" fill="#00D4FF" opacity="0.7"/><path d="M590 593 l18 6 l-8 18 z" fill="#00D4FF" opacity="0.7"/><path d="M729 619 l18 6 l-8 18 z" fill="#00D4FF" opacity="0.7"/>
  <rect width="1200" height="1500" fill="url(#vig)"/>
  <text x="60" y="1350" font-family="Georgia, 'Times New Roman', serif" font-size="74" font-weight="700" fill="#ffffff">Social Feed Breakout</text>
  <text x="62" y="1408" font-family="ui-monospace, Menlo, monospace" font-size="30" letter-spacing="3" fill="#00D4FF" opacity="0.95">social-feed · climb-out · toward viewer</text>
</svg>
