<svg xmlns="http://www.w3.org/2000/svg" width="1200" height="1500" viewBox="0 0 1200 1500" role="img" aria-label="Wanted Poster Peel">
  <defs>
    <radialGradient id="bg" cx="50%" cy="34%" r="80%">
      <stop offset="0%" stop-color="#C29B5B" stop-opacity="0.22"/>
      <stop offset="40%" stop-color="#2A1C0E"/>
      <stop offset="100%" stop-color="#000000"/>
    </radialGradient>
    <linearGradient id="vig" x1="0" y1="0" x2="0" y2="1">
      <stop offset="0%" stop-color="#000" stop-opacity="0"/>
      <stop offset="72%" stop-color="#000" stop-opacity="0"/>
      <stop offset="100%" stop-color="#000" stop-opacity="0.78"/>
    </linearGradient>
  </defs>
  <rect width="1200" height="1500" fill="url(#bg)"/>
  <rect x="20" y="20" width="1160" height="1460" rx="28" fill="none" stroke="#F2E2C2" stroke-opacity="0.35" stroke-width="3"/>
  
        <rect x="320" y="330" width="560" height="800" rx="8" fill="#C29B5B" opacity="0.18" stroke="#C29B5B" stroke-width="4"/>
        <rect x="380" y="500" width="440" height="380" rx="6" fill="#2A1C0E" opacity="0.6"/>
        <circle cx="600" cy="660" r="86" fill="#F2E2C2" opacity="0.85"/>
        <rect x="430" y="900" width="340" height="26" rx="8" fill="#F2E2C2" opacity="0.5"/>
        <!-- peeling corner with a figure stepping off -->
        <path d="M380 500 l140 0 l-140 140 z" fill="#F2E2C2" opacity="0.9"/>
        <path d="M770 720 q30 90 -16 180 q86 50 30 190 q-120 26 -160 -50 q34 -150 66 -240 q-20 -70 80 -80 z" fill="#F2E2C2"/>
        <circle cx="780" cy="700" r="44" fill="#F2E2C2"/>
  <rect width="1200" height="1500" fill="url(#vig)"/>
  <text x="60" y="1350" font-family="Georgia, 'Times New Roman', serif" font-size="74" font-weight="700" fill="#ffffff">Wanted Poster Peel</text>
  <text x="62" y="1408" font-family="ui-monospace, Menlo, monospace" font-size="30" letter-spacing="3" fill="#F2E2C2" opacity="0.95">wanted-poster · peel · off-screen</text>
</svg>
